<?xml version="1.0" encoding="utf-8"?>
<!-- Generator: Adobe Illustrator 16.0.0, SVG Export Plug-In . SVG Version: 6.00 Build 0)  -->
<!DOCTYPE svg PUBLIC "-//W3C//DTD SVG 1.1//EN" "http://www.w3.org/Graphics/SVG/1.1/DTD/svg11.dtd">
<svg version="1.1" id="Calque_1" xmlns="http://www.w3.org/2000/svg" xmlns:xlink="http://www.w3.org/1999/xlink" x="0px" y="0px"
	 width="214.102px" height="214.102px" viewBox="0 0 214.102 214.102" enable-background="new 0 0 214.102 214.102"
	 xml:space="preserve">
<path fill="#010101" d="M86.293,61.117c-2.378,0-4.31-1.916-4.31-4.304c0-2.384,1.932-4.298,4.31-4.298
	c2.397,0,4.31,1.914,4.31,4.298C90.603,59.201,88.678,61.117,86.293,61.117z"/>
<path fill="#010101" d="M127.808,61.117c-2.385,0-4.311-1.916-4.311-4.304c0-2.384,1.926-4.298,4.311-4.298
	c2.384,0,4.304,1.914,4.304,4.298C132.112,59.201,130.192,61.117,127.808,61.117z"/>
<path d="M214.102,107.052c0,59.122-47.928,107.05-107.051,107.05C47.929,214.102,0,166.174,0,107.052C0,47.928,47.929,0,107.051,0
	C166.174,0,214.102,47.928,214.102,107.052z M48.211,78.959h-0.417c-5.301,0-9.625,4.34-9.625,9.631v41.921
	c0,5.308,4.324,9.631,9.625,9.631h0.425c5.3,0,9.624-4.338,9.624-9.631V88.59C57.836,83.299,53.505,78.959,48.211,78.959z
	 M62.45,146.688c0,4.868,3.981,8.836,8.85,8.836h9.457v22.644c0,5.314,4.336,9.639,9.625,9.639h0.418
	c5.306,0,9.637-4.331,9.637-9.639v-22.644h13.216v22.644c0,5.314,4.356,9.639,9.643,9.639h0.404c5.314,0,9.639-4.331,9.639-9.639
	v-22.644h9.462c4.863,0,8.845-3.968,8.845-8.836V80.498H62.45V146.688z M129.263,40.359l7.509-11.595
	c0.485-0.731,0.271-1.731-0.471-2.206c-0.727-0.485-1.73-0.283-2.202,0.468l-7.793,11.993c-5.839-2.391-12.365-3.738-19.256-3.738
	c-6.897,0-13.402,1.347-19.263,3.738l-7.772-11.993c-0.472-0.751-1.482-0.953-2.216-0.468c-0.741,0.475-0.957,1.475-0.47,2.206
	l7.515,11.595C71.292,47,62.153,59.517,62.153,73.877c0,0.882,0.054,1.75,0.135,2.613h89.538c0.081-0.863,0.129-1.731,0.129-2.613
	C151.955,59.517,142.806,47,129.263,40.359z M166.3,78.959h-0.403c-5.303,0-9.639,4.34-9.639,9.631v41.921
	c0,5.308,4.343,9.631,9.639,9.631h0.41c5.306,0,9.625-4.338,9.625-9.631V88.59C175.932,83.299,171.601,78.959,166.3,78.959z"/>
</svg>
