<?xml version="1.0" encoding="utf-8"?>
<!-- Generator: Adobe Illustrator 16.0.0, SVG Export Plug-In . SVG Version: 6.00 Build 0)  -->
<!DOCTYPE svg PUBLIC "-//W3C//DTD SVG 1.1//EN" "http://www.w3.org/Graphics/SVG/1.1/DTD/svg11.dtd">
<svg version="1.1" id="Calque_1" xmlns="http://www.w3.org/2000/svg" xmlns:xlink="http://www.w3.org/1999/xlink" x="0px" y="0px"
	 width="214.102px" height="214.102px" viewBox="0 0 214.102 214.102" enable-background="new 0 0 214.102 214.102"
	 xml:space="preserve">
<path d="M214.102,107.052c0,59.123-47.928,107.05-107.05,107.05C47.929,214.102,0,166.174,0,107.052C0,47.928,47.929,0,107.051,0
	C166.174,0,214.102,47.928,214.102,107.052z M103.48,113.391c0,0-9.567-18.435-9.215-31.906c0.26-9.623,21.968-19.14,30.493-32.957
	c8.499-13.824-1.065-27.29-1.065-27.29s2.127,9.926-3.539,20.197c-5.676,10.279-26.606,16.313-34.749,34.029
	C77.271,93.187,103.48,113.391,103.48,113.391z M139.294,57.39c0,0-32.605,12.407-32.605,26.577
	c0,14.185,8.855,18.788,10.279,23.391c1.417,4.618-2.48,12.415-2.48,12.415s12.758-8.861,10.623-19.147
	c-2.129-10.278-12.056-13.472-6.373-23.743C122.527,69.998,139.294,57.39,139.294,57.39z M99.949,132.122
	c30.13-1.07,41.123-10.58,41.123-10.58c-19.494,5.309-71.245,4.963-71.612,1.064c-0.345-3.898,15.947-7.092,15.947-7.092
	s-25.514,0-27.642,6.379C55.634,128.274,69.841,133.178,99.949,132.122z M143.544,147.061c0,0,29.491-6.293,26.57-22.313
	c-3.531-19.499-24.095-8.516-24.095-8.516s14.542,0,15.954,8.855C163.391,133.95,143.544,147.061,143.544,147.061z M129.007,138.561
	c0,0-7.43,1.947-18.441,3.186c-14.76,1.66-32.604,0.354-34.029-2.129c-1.395-2.49,2.489-3.9,2.489-3.9
	c-17.73,4.26-8.035,11.689,12.745,13.121c17.809,1.215,44.322-5.322,44.322-5.322L129.007,138.561z M83.292,154.047
	c0,0-8.042,0.221-8.51,4.479c-0.467,4.23,4.949,8.027,24.808,9.207c19.844,1.182,33.799-5.43,33.799-5.43l-8.985-5.445
	c0,0-5.673,1.195-14.419,2.367c-8.748,1.186-26.693-0.951-27.399-2.59C81.867,154.981,83.292,154.047,83.292,154.047z
	 M160.549,173.186c3.072-3.316-0.949-5.914-0.949-5.914s1.417,1.656-0.454,3.539c-1.898,1.885-19.155,6.609-46.804,8.029
	c-27.641,1.424-57.657-2.598-58.606-6.145c-0.921-3.539,15.371-6.365,15.371-6.365c-1.884,0.23-24.571,0.705-25.29,6.855
	c-0.705,6.135,9.918,11.098,52.471,11.098C138.811,184.278,157.492,176.479,160.549,173.186z M144.012,187.12
	c-18.671,3.775-75.365,1.395-75.365,1.395s36.848,8.746,78.911,1.432c20.104-3.51,21.276-13.242,21.276-13.242
	S162.684,183.329,144.012,187.12z"/>
</svg>
