<?xml version="1.0" encoding="utf-8"?>
<!-- Generator: Adobe Illustrator 16.0.0, SVG Export Plug-In . SVG Version: 6.00 Build 0)  -->
<!DOCTYPE svg PUBLIC "-//W3C//DTD SVG 1.1//EN" "http://www.w3.org/Graphics/SVG/1.1/DTD/svg11.dtd">
<svg version="1.1" id="Calque_1" xmlns="http://www.w3.org/2000/svg" xmlns:xlink="http://www.w3.org/1999/xlink" x="0px" y="0px"
	 width="214.102px" height="214.102px" viewBox="0 0 214.102 214.102" enable-background="new 0 0 214.102 214.102"
	 xml:space="preserve">
<path d="M214.102,107.052c0,59.123-47.928,107.05-107.05,107.05C47.929,214.102,0,166.175,0,107.052C0,47.928,47.929,0,107.051,0
	C166.174,0,214.102,47.928,214.102,107.052z M154.168,34.021L59.935,64.149l-0.004,28.669l94.241-30.131L154.168,34.021z
	 M153.928,121.282L59.695,151.41l-0.004,28.669l94.241-30.131L153.928,121.282z M154.168,77.652l-94.233,30.127l-0.004,28.67
	l94.241-30.131L154.168,77.652z"/>
</svg>
